Patient4_TMGait_0pt7_01_right_26_EMG.mot
version=1
nRows=17
nColumns=33
inDegrees=no
endheader
time	1LAddLong	2LGlutMax	3LGlutMed	4LIliopsoas	5LSemiMemb	6LBicFemLong	7LRecFem	8LVastMed	9LVastLat	10LGasMed	11LTibAnt	12lTibPost	13LPeroneusLong	14LSol	15LExtDigLong	16LFlexDigLong	17RAddLong	18RGlutMax	19RGlutMed	20RIliopsoas	21RSemiMemb	22RBicFemLong	23RRecFem	24RVastMed	25RVastLat	26RGasMed	27RTibAnt	28RTibPost	29RPeroneusLong	30RSol	31RExtDigLong	32RFlexDigLong
29.78	-0.025024	-0.075836	0.025024	-0.003967	-0.0177	-0.010223	0.077972	-0.002441	0.21942	0.12451	0.06546	0.020905	-0.10147	0.23575	-0.42725	-0.015106	-0.020142	-0.14572	-0.55878	-0.14862	0.061188	0.72403	-0.20081	-0.12741	0.26657	-0.000458	-0.18066	0.019684	0.11383	-0.098267	-0.000458	-0.002441
29.781	-0.02533	-0.013123	0.027313	0.006866	0.018311	0.007324	0.021515	-0.003052	0.15366	0.1799	0.053406	0.006256	-0.10849	0.27054	-0.34332	-0.027161	0.001221	-0.19486	0.15198	-0.33173	0.12711	0.41321	-0.17303	-0.058441	0.14755	-0.011597	-0.22171	0.015717	-0.63614	0.20523	0.000916	-0.006256
29.782	-0.029144	-0.024109	0.06073	0.040283	0.014954	-0.003357	0.035858	-0.004883	0.13184	0	0.027313	0.007629	-0.112	0.26459	-0.30456	-0.027466	0.007324	-0.11231	0.89172	-0.26566	0.090332	0.38498	-0.36636	-0.06073	-0.019226	-0.02121	-0.13275	0.017242	-0.88654	0.40344	-0.005951	-0.000305
29.783	-0.021057	0.033569	0.093079	0.052185	0.027771	0.020447	0.11185	-0.008392	0.097046	-0.19989	0.032806	0.014191	-0.070648	0.24399	-0.12085	-0.005341	0.01709	-0.07309	-0.1326	-0.045471	-0.048676	0.39002	-0.23666	-0.18555	-0.16525	-0.018616	0.16998	0.019531	-0.29022	0.13138	-0.001678	0.002136
29.784	0.032959	0.049286	0.087433	0.03067	0.023651	0.02121	0.25116	-0.012054	0.068207	-0.18936	0.003967	0.017242	-0.057373	0.19486	-0.039978	-0.03418	0.002136	-0.068512	-0.63385	0.18005	-0.34729	0.38345	0.022888	-0.13779	-0.17639	-0.019989	0.16449	0.011139	-0.88211	-0.007324	-0.000153	-0.004272
29.785	0.017548	0.070496	0.081635	0.008087	0.022583	0.040436	0.3183	-0.005188	0.050659	-0.12482	-0.041199	0.012817	-0.058289	0.2005	0.047607	0.003662	-0.005646	0.01358	-0.057068	0.063019	-0.51422	0.24307	-0.20554	-0.24582	0.069275	-0.017242	0.14587	0.019836	-0.33829	-0.037231	-0.001526	0.001221
29.786	-0.053101	0.12848	0.13641	0.019073	0.016479	0.050049	0.35523	0.003052	0.030975	-0.093384	-0.024719	0.019684	-0.052643	0.23422	0.17792	0.012207	-0.028076	-0.11643	0.21011	-0.068817	-0.31464	0.15259	-0.44113	-0.52536	-0.11887	-0.013275	0.055847	0.015411	0.54627	0.057831	0.00351	-0.003967
29.787	-0.019684	0.13351	0.15274	0.025024	0.019226	0.062866	0.53741	0.005341	0.019226	-0.077972	0.14282	0.017395	-0.074615	0.23422	0.043335	0.005188	-0.021667	-0.32272	-0.45548	-0.06958	0.1268	0.09964	-0.48935	-0.67459	0.025635	-0.010071	-0.023346	0.013885	0.30167	-0.000305	-0.004425	-0.002441
29.788	-0.01236	0.15854	0.12573	0.026093	0.020447	0.077362	0.78232	0.010223	0.01236	-0.060883	0.26489	0.022583	-0.16007	0.2562	0.13519	0.000305	0.018616	-0.36392	-0.62088	0.048218	0.28641	-0.030823	-0.41641	-0.76294	0.17029	-0.008545	-0.039825	0.013275	-0.041809	-0.12451	-0.003204	0.002441
29.789	-0.012512	0.18814	0.081329	0.007629	0.022125	0.051575	0.89813	-0.000305	-0.009155	-0.06073	0.28839	0.010681	-0.15121	0.24857	0.20493	-0.00061	0.037079	-0.39764	-0.19333	0.13657	0.12482	-0.38666	-0.91324	-0.44998	0.80154	-0.00351	-0.21454	0.012512	-0.46066	-0.15701	-0.003052	-0.001526
29.79	-0.009613	0.17746	0.095673	-0.006409	0.019379	0.046387	0.93262	0.016174	-0.015411	-0.089111	-0.12787	0.015869	-0.069427	0.2507	-0.056305	0.001373	-0.000763	-0.33005	-0.13489	0.2359	0.22751	-0.38574	-1.3104	-0.25101	1.1427	-0.005798	-0.51941	0.014954	-0.14053	-0.16892	-0.002747	-0.011444
29.791	-0.005798	0.15305	0.084991	0.001221	0.015259	0.054321	0.78583	0.023499	-0.046387	-0.10666	-0.20096	0.001984	0.018311	0.20386	-0.15915	-0.00824	-0.055389	-0.27039	-0.06546	0.087433	-0.095215	-0.23056	-1.181	0.24841	0.89294	-0.015259	-0.018311	0.009003	0.50095	-0.13672	-0.001068	-0.016174
29.792	-0.010986	0.12848	0.048981	-0.00061	0.020142	0.065765	0.58853	0	-0.056458	-0.10681	-0.059509	0.028381	0.005493	0.18387	0.032043	0.010376	-0.028534	-0.25207	-1.0278	-0.11261	-0.1236	-0.046692	-0.737	0.52094	0.97534	-0.023041	0.32867	0.003967	0.42358	-0.094452	-0.002136	-0.012817
29.793	-0.008545	0.13809	0.052643	-0.01358	0.016937	0.031281	0.33386	0.020752	-0.090942	-0.092621	0.023804	0.020294	-0.079956	0.15686	0.18738	0.014954	0.048218	-0.24887	-0.23743	-0.15747	0.098572	0.10086	-0.22201	0.33875	-0.70999	-0.025177	0.57861	0.010834	-0.097656	-0.074005	-0.000916	-0.014496
29.794	-0.010986	0.12695	0.080109	-0.011749	0.016632	0.032959	0.086212	0.023804	-0.080109	-0.13443	0.002899	0.016327	-0.005493	0.15076	-0.25513	0.014801	0.10056	-0.29755	0.13763	0.058136	0.062408	0.11078	0.33478	0.25909	-1.7659	-0.018463	0.69946	0.007782	-0.23712	-0.13168	-0.002136	-0.016479
29.795	-0.000458	0.095215	0.11627	0.010529	0.00946	0.027924	0.03479	0.022736	-0.080566	-0.19424	-0.076447	0.024261	0.16205	0.20477	-0.039673	0.034485	0.13107	-0.45425	-0.19714	0.090942	-0.22644	0.13672	0.92392	0.23865	-1.9272	-0.024872	1.21	0.009155	-0.26764	-0.084076	-0.00351	-0.00885
29.796	-0.006866	0.06958	0.10696	0.012665	0.019226	0.021362	0.04425	0.026245	-0.094147	-0.14328	-0.098419	0.005951	0.016022	0.20981	0.10834	0.014954	0.034027	-0.41214	-0.52811	-0.041809	-0.65536	0.1796	0.92743	-0.039825	-1.2175	-0.014954	1.2308	0.020905	-0.54199	-0.19577	-0.002747	-0.001984
